<svg viewBox="0 0 33 32" fill="none" xmlns="http://www.w3.org/2000/svg"><g clip-path="url(#clip0)"><path fill-rule="evenodd" clip-rule="evenodd" d="M16.402 0C7.345 0 0 7.346 0 16.402 0 23.648 4.73 29.787 11.17 32c.804.1 1.106-.402 1.106-.805v-2.818c-4.528 1.007-5.534-2.213-5.534-2.213-.705-1.912-1.812-2.416-1.812-2.416-1.51-1.006.101-1.006.101-1.006 1.61.1 2.516 1.71 2.516 1.71 1.51 2.517 3.824 1.812 4.73 1.41.1-1.107.603-1.812 1.006-2.214-3.623-.403-7.447-1.811-7.447-8.151 0-1.812.604-3.22 1.71-4.428-.1-.302-.704-2.012.202-4.226 0 0 1.409-.403 4.528 1.71 1.308-.402 2.717-.503 4.126-.503 1.409 0 2.818.202 4.126.503 3.12-2.113 4.528-1.71 4.528-1.71.906 2.214.302 3.924.201 4.327a6.509 6.509 0 011.711 4.428c0 6.34-3.824 7.647-7.447 8.05.604.503 1.107 1.51 1.107 3.019v4.528c0 .402.302.906 1.107.805a16.42 16.42 0 0011.17-15.598C32.805 7.347 25.46 0 16.402 0z" fill="#fff"/></g><defs><clipPath id="clip0"><path fill="currentColor" d="M0 0h32.805v32H0z"/></clipPath></defs></svg>