<svg viewBox="0 0 34 34" fill="none" xmlns="http://www.w3.org/2000/svg"><path fill-rule="evenodd" clip-rule="evenodd" d="M16.5 0C7.387 0 0 7.387 0 16.5v1C0 26.613 7.387 34 16.5 34h1C26.613 34 34 26.613 34 17.5v-1C34 7.387 26.613 0 17.5 0h-1zm9.452 14.534c0 5.357-4.128 11.545-11.672 11.545-2.312 0-4.472-.673-6.28-1.812.32.04.648.055.976.055a8.29 8.29 0 005.096-1.74 4.097 4.097 0 01-3.832-2.818c.248.048.504.072.768.072a4.04 4.04 0 001.08-.143c-1.872-.372-3.288-2.018-3.288-3.98v-.055c.552.3 1.184.482 1.856.506a4.057 4.057 0 01-1.824-3.379c0-.744.2-1.44.552-2.041a11.692 11.692 0 008.456 4.241c-.064-.3-.104-.61-.104-.926 0-2.24 1.84-4.059 4.104-4.059 1.176 0 2.24.49 2.992 1.282a8.216 8.216 0 002.608-.981 4.09 4.09 0 01-1.808 2.247 8.388 8.388 0 002.36-.641 8.307 8.307 0 01-2.048 2.105c.008.174.008.348.008.522z" fill="#fff"/></svg>